<?xml version="1.0" encoding="utf-8"?>
<!-- Generator: Adobe Illustrator 16.0.0, SVG Export Plug-In . SVG Version: 6.00 Build 0)  -->
<!DOCTYPE svg PUBLIC "-//W3C//DTD SVG 1.1//EN" "http://www.w3.org/Graphics/SVG/1.1/DTD/svg11.dtd">
<svg version="1.1" xmlns="http://www.w3.org/2000/svg" xmlns:xlink="http://www.w3.org/1999/xlink" x="0px" y="0px"
	 width="5847.585px" height="3921.392px" viewBox="0 0 5847.585 3921.392" enable-background="new 0 0 5847.585 3921.392"
	 xml:space="preserve">
<g id="BACKGROUND">
</g>
<g id="OBJECTS">
	<g>
		<path fill="#869BDB" d="M2596.614,2396.13v93.579l80.521,91.396h119.697l91.402-93.579v-89.227l50.055,47.878v248.096
			c0,0-6.531,30.471-60.934,28.295c-54.412-2.176-311.206,4.357-311.206,4.357s-34.824-13.061-34.824-30.471
			c0-17.408,8.704-250.277,8.704-250.277L2596.614,2396.13z"/>
		<g>
			<path fill="#52545C" d="M2684.152,2494.688c29.352,18.799,65.383,20.805,98.869,5.391c7.123-3.271,10.248-11.711,6.965-18.835
				c-3.279-7.122-11.713-10.246-18.838-6.966c-24.484,11.265-50.609,9.99-71.68-3.516c-20.555-13.159-32.818-35.539-32.818-59.837
				c0-39.154,31.85-71.015,71.008-71.015c39.152,0,71.006,31.861,71.006,71.015c0,7.832-6.369,14.199-14.201,14.199
				c-7.154,0-13.844-5.426-14.197-13.989c0-0.075,0-0.137,0-0.21c0-23.493-19.117-42.615-42.607-42.615
				c-23.496,0-42.607,19.122-42.607,42.615c0,23.491,19.111,42.601,42.607,42.601c10.902,0,20.857-4.113,28.4-10.88
				c7.545,6.767,17.502,10.88,28.404,10.88c23.496,0,42.605-19.109,42.605-42.601c0-54.818-44.596-99.415-99.41-99.415
				c-54.82,0-99.418,44.596-99.418,99.415C2638.24,2444.952,2655.405,2476.265,2684.152,2494.688z M2737.658,2425.125
				c-7.832,0-14.201-6.368-14.201-14.199c0-7.832,6.369-14.2,14.201-14.2c7.277,0,13.293,5.5,14.098,12.575
				c-0.209,1.291-0.248,2.604-0.098,3.905C2750.561,2419.946,2744.713,2425.125,2737.658,2425.125z"/>
			<path fill="#52545C" d="M2950.687,2441.197c0-3.67-1.484-7.348-4.158-10.025l-52.65-52.637v-109.638
				c0-7.844-6.355-14.201-14.199-14.201h-284.044c-7.844,0-14.201,6.357-14.201,14.201v109.638l-52.648,52.637
				c-0.05,0.051-0.094,0.111-0.137,0.16c-2.666,2.74-4.017,6.346-4.021,9.865c0,0.012,0,0.026,0,0.026v255.64
				c0,23.52,19.137,42.602,42.602,42.602h340.854c23.512,0,42.604-19.135,42.604-42.602v-255.64
				C2950.687,2441.223,2950.687,2441.209,2950.687,2441.197z M2916.398,2441.223l-22.52,22.514v-45.042L2916.398,2441.223z
				 M2865.479,2283.096v101.314c0,0,0,0,0,0.01v107.729l-76.896,76.888h-101.854l-76.896-76.888V2384.42c0-0.01,0-0.01,0-0.01
				v-101.314H2865.479z M2581.434,2463.737l-22.521-22.514l22.521-22.528V2463.737z M2553.029,2690.976v-215.472l107.733,107.733
				L2553.029,2690.976z M2573.116,2711.064l113.613-113.613h101.854l113.617,113.613H2573.116z M2922.283,2690.976l-107.734-107.738
				l107.734-107.733V2690.976z"/>
		</g>
	</g>
</g>
<g id="DESIGNED_BY_FREEPIK">
	<g>
		<g id="XMLID_319_">
			<g id="XMLID_338_">
				<path id="XMLID_346_" fill="#1D262D" d="M2759.222,4269.889c-3.13,3.207-5.815,6.739-8.019,10.513l-3.363-1.744
					c-0.487-2.147-2.529-3.632-4.768-3.372c-2.396,0.283-4.106,2.452-3.829,4.848c0.281,2.396,2.451,4.105,4.845,3.823
					c0.475-0.05,0.92-0.184,1.33-0.375l3.263,1.694c-1.815,4.008-3.13,8.239-3.9,12.611l5.404,0.955
					c1.661-9.445,6.148-18.137,12.958-25.123L2759.222,4269.889z"/>
				<path id="XMLID_345_" fill="#1D262D" d="M2798.922,4253.236c-1.236,0-2.466,0.044-3.688,0.121l-0.531-4.528
					c1.357-1.083,2.142-2.813,1.921-4.664c-0.331-2.842-2.909-4.875-5.75-4.544c-2.847,0.333-4.882,2.912-4.543,5.759
					c0.218,1.836,1.371,3.334,2.926,4.077l0.529,4.515c-5.164,0.84-10.146,2.401-14.901,4.67l2.369,4.953
					c6.753-3.236,14.046-4.875,21.669-4.875c3.596,0,7.185,0.381,10.674,1.143l1.159-5.36
					C2806.885,4253.661,2802.906,4253.236,2798.922,4253.236z"/>
				<path id="XMLID_344_" fill="#1D262D" d="M2846.69,4271.663c2.395-0.289,4.098-2.466,3.802-4.861
					c-0.289-2.396-2.466-4.098-4.861-3.801c-2.239,0.275-3.871,2.196-3.836,4.402l-3.009,2.626
					c-3.026-3.106-6.437-5.877-10.181-8.243l-2.926,4.641c8.21,5.172,14.618,12.491,18.547,21.162l4.995-2.263
					c-1.817-4.004-4.106-7.751-6.818-11.176l2.91-2.537C2845.757,4271.698,2846.217,4271.725,2846.69,4271.663z"/>
				<path id="XMLID_343_" fill="#1D262D" d="M2794.966,4327.088c-2.791,0.171-5.611,0.256-8.373,0.256
					c-6.366,0-12.541-0.438-17.931-1.301c-2.826-0.445-6.119-1.117-9.193-2.111c7.574,13.465,22.207,22.607,38.987,22.607
					c20.658,0,38.067-13.863,43.041-32.576c-4.93,3.248-10.887,5.969-17.784,8.116
					C2815.178,4324.743,2805.23,4326.475,2794.966,4327.088z"/>
				<path id="XMLID_339_" fill="#1D262D" d="M2798.922,4264.208c-24.248,0-43.981,19.289-43.981,43c0,3.074,0.331,6.139,0.988,9.121
					c4.876,3.497,19.578,6.443,38.689,5.293c20.837-1.26,38.323-6.933,48.271-15.621c-0.035-1.407-0.147-2.82-0.324-4.204
					C2839.815,4280.366,2821.049,4264.208,2798.922,4264.208z M2783.301,4311.34c-7.376,0-13.382-6.006-13.382-13.382
					c0-7.382,6.006-13.388,13.382-13.388c7.375,0,13.382,6.006,13.382,13.388C2796.683,4305.334,2790.677,4311.34,2783.301,4311.34z
					 M2817.574,4304.77c-5.425,0-9.842-4.416-9.842-9.842s4.417-9.842,9.842-9.842c5.426,0,9.842,4.416,9.842,9.842
					S2823,4304.77,2817.574,4304.77z"/>
			</g>
			<path id="XMLID_336_" fill="#1D262D" d="M2914.707,4277.717c-2.133-0.842-5.827-2.24-10.004-1.724
				c-3.983,0.501-6.104,2.464-6.104,7.284v6.267h16.123v12.421h-16.123v39.467h-13.975v-39.467h-9.692v-12.421h9.692v-6.429
				c0-12.152,6.479-20.129,18.583-20.129c4.646,0,8.37,0.875,11.5,2.225V4277.717z"/>
			<path id="XMLID_334_" fill="#1D262D" d="M2948.726,4301.817c-1.278-0.213-2.585-0.333-3.807-0.333
				c-6.479,0-10.924,3.965-10.924,11.671v28.277h-13.976v-51.888h13.553v5.673c3.263-4.867,8.243-7.065,14.616-7.065
				c2.997,0,6.133,0.927,7.914,2.439L2948.726,4301.817z"/>
			<path id="XMLID_331_" fill="#1D262D" d="M3004.204,4315.411c0,1.604-0.114,3.532-0.269,4.713h-36.789
				c1.499,7.496,6.747,10.76,13.332,10.76c4.5,0,9.367-1.824,13.12-4.98l8.195,8.992c-5.892,5.413-13.388,7.879-22.12,7.879
				c-15.904,0-26.933-10.824-26.933-27.15c0-16.338,10.709-27.472,26.239-27.472
				C2993.917,4288.152,3004.148,4299.239,3004.204,4315.411z M2967.197,4310.591h22.976c-1.286-6.642-5.301-10.394-11.299-10.394
				C2972.283,4300.198,2968.432,4304.163,2967.197,4310.591z"/>
			<path id="XMLID_328_" fill="#1D262D" d="M3059.574,4315.411c0,1.604-0.112,3.532-0.269,4.713h-36.789
				c1.498,7.496,6.747,10.76,13.332,10.76c4.502,0,9.369-1.824,13.12-4.98l8.195,8.992c-5.892,5.413-13.389,7.879-22.121,7.879
				c-15.902,0-26.933-10.824-26.933-27.15c0-16.338,10.712-27.472,26.24-27.472
				C3049.287,4288.152,3059.517,4299.239,3059.574,4315.411z M3022.566,4310.591h22.977c-1.286-6.642-5.308-10.394-11.297-10.394
				C3027.653,4300.198,3023.802,4304.163,3022.566,4310.591z"/>
			<path id="XMLID_325_" fill="#1D262D" d="M3119.947,4315.459c0,15.586-10.81,27.314-25.109,27.314
				c-6.96,0-11.893-2.734-15.262-6.746v26.826h-13.925v-73.31h13.656v5.729c3.37-4.231,8.353-7.122,15.474-7.122
				C3109.137,4288.152,3119.947,4299.881,3119.947,4315.459z M3078.876,4315.459c0,8.195,5.411,14.299,13.332,14.299
				c8.252,0,13.389-6.372,13.389-14.299c0-7.92-5.137-14.292-13.389-14.292C3084.288,4301.167,3078.876,4307.272,3078.876,4315.459z
				"/>
			<path id="XMLID_322_" fill="#1D262D" d="M3142.4,4272.566c0,5.038-3.908,8.897-8.938,8.897c-5.036,0-8.887-3.859-8.887-8.897
				c0-5.03,3.851-8.993,8.887-8.993C3138.492,4263.573,3142.4,4267.536,3142.4,4272.566z M3140.527,4341.432h-13.975v-51.888h13.975
				V4341.432z"/>
			<path id="XMLID_320_" fill="#1D262D" d="M3163.849,4308.019l19.551-18.475h17.132l-25.165,24.419l25.33,27.469h-17.191
				l-19.656-20.99v20.99h-13.973v-77.109h13.973V4308.019z"/>
		</g>
		<g>
			<path fill="#1D262D" d="M2211.605,4340.966v-7.632c-3.817,5.194-10.064,8.903-17.271,8.903
				c-13.353,0-22.787-10.175-22.787-26.813c0-16.321,9.328-26.918,22.787-26.918c6.889,0,13.14,3.392,17.271,9.007v-27.236h7.95
				v70.689H2211.605z M2211.605,4327.083v-23.209c-2.859-4.452-9.005-8.267-15.367-8.267c-10.277,0-16.425,8.479-16.425,19.817
				c0,11.34,6.147,19.713,16.425,19.713C2202.6,4335.137,2208.746,4331.532,2211.605,4327.083z"/>
			<path fill="#1D262D" d="M2229.832,4315.32c0-14.839,10.597-26.813,25.224-26.813c15.472,0,24.583,12.08,24.583,27.448v2.013
				h-41.434c0.635,9.644,7.419,17.698,18.441,17.698c5.827,0,11.763-2.331,15.786-6.464l3.815,5.194
				c-5.086,5.086-11.971,7.842-20.344,7.842C2240.748,4342.238,2229.832,4331.322,2229.832,4315.32z M2254.95,4295.077
				c-10.916,0-16.321,9.221-16.745,17.063h33.597C2271.693,4304.508,2266.606,4295.077,2254.95,4295.077z"/>
			<path fill="#1D262D" d="M2285.362,4334.184l4.133-5.724c3.39,3.921,9.856,7.313,16.847,7.313c7.846,0,12.085-3.711,12.085-8.798
				c0-12.399-31.688-4.768-31.688-23.739c0-7.948,6.885-14.73,19.072-14.73c8.695,0,14.841,3.285,18.974,7.417l-3.713,5.511
				c-3.069-3.709-8.687-6.465-15.261-6.465c-6.991,0-11.336,3.499-11.336,8.055c0,11.234,31.684,3.816,31.684,23.74
				c0,8.585-6.885,15.474-20.132,15.474C2297.656,4342.238,2290.555,4339.694,2285.362,4334.184z"/>
			<path fill="#1D262D" d="M2335.065,4277.166c0-2.966,2.439-5.405,5.296-5.405c2.968,0,5.405,2.439,5.405,5.405
				c0,2.968-2.437,5.301-5.405,5.301C2337.504,4282.466,2335.065,4280.133,2335.065,4277.166z M2336.44,4340.966v-51.188h7.952
				v51.188H2336.44z"/>
			<path fill="#1D262D" d="M2357.529,4354.106l4.025-5.933c4.239,5.086,9.326,6.993,16.639,6.993
				c8.477,0,16.427-4.134,16.427-15.368v-7.312c-3.71,5.193-9.962,9.114-17.169,9.114c-13.353,0-22.785-9.961-22.785-26.493
				c0-16.43,9.326-26.602,22.785-26.602c6.889,0,13.037,3.392,17.169,9.007v-7.735h7.948v49.704
				c0,16.958-11.869,22.257-24.375,22.257C2369.502,4361.739,2363.566,4360.034,2357.529,4354.106z M2394.62,4326.233v-22.359
				c-2.755-4.452-8.903-8.267-15.261-8.267c-10.281,0-16.422,8.16-16.422,19.501c0,11.233,6.142,19.498,16.422,19.498
				C2385.716,4334.606,2391.864,4330.685,2394.62,4326.233z"/>
			<path fill="#1D262D" d="M2450.36,4340.966v-33.491c0-9.007-4.556-11.868-11.444-11.868c-6.254,0-12.188,3.814-15.153,7.948
				v37.411h-7.952v-51.188h7.952v7.419c3.6-4.239,10.595-8.69,18.225-8.69c10.706,0,16.321,5.404,16.321,16.532v35.928H2450.36z"/>
			<path fill="#1D262D" d="M2468.585,4315.32c0-14.839,10.597-26.813,25.224-26.813c15.471,0,24.587,12.08,24.587,27.448v2.013
				h-41.435c0.635,9.644,7.416,17.698,18.438,17.698c5.827,0,11.763-2.331,15.79-6.464l3.814,5.194
				c-5.086,5.086-11.975,7.842-20.348,7.842C2479.505,4342.238,2468.585,4331.322,2468.585,4315.32z M2493.703,4295.077
				c-10.916,0-16.32,9.221-16.741,17.063h33.593C2510.448,4304.508,2505.359,4295.077,2493.703,4295.077z"/>
			<path fill="#1D262D" d="M2565.662,4340.966v-7.632c-3.815,5.194-10.066,8.903-17.278,8.903
				c-13.349,0-22.783-10.175-22.783-26.813c0-16.321,9.324-26.918,22.783-26.918c6.889,0,13.145,3.392,17.278,9.007v-27.236h7.946
				v70.689H2565.662z M2565.662,4327.083v-23.209c-2.864-4.452-9.007-8.267-15.365-8.267c-10.281,0-16.429,8.479-16.429,19.817
				c0,11.34,6.147,19.713,16.429,19.713C2556.654,4335.137,2562.798,4331.532,2565.662,4327.083z"/>
			<path fill="#1D262D" d="M2611.543,4340.966v-70.689h7.948v27.236c4.133-5.615,10.281-9.007,17.276-9.007
				c13.349,0,22.785,10.597,22.785,26.918c0,16.639-9.437,26.813-22.785,26.813c-7.207,0-13.459-3.709-17.276-8.903v7.632H2611.543z
				 M2634.752,4335.137c10.387,0,16.533-8.373,16.533-19.713c0-11.339-6.146-19.817-16.533-19.817
				c-6.252,0-12.506,3.814-15.261,8.267v23.209C2622.247,4331.532,2628.5,4335.137,2634.752,4335.137z"/>
			<path fill="#1D262D" d="M2668.239,4353.788c1.166,0.531,3.078,0.85,4.346,0.85c3.496,0,5.829-1.166,7.629-5.404l3.393-7.738
				l-21.407-51.717h8.583l17.064,41.967l16.953-41.967h8.689l-25.642,61.573c-3.074,7.411-8.267,10.279-15.049,10.388
				c-1.696,0-4.345-0.318-5.829-0.75L2668.239,4353.788z"/>
		</g>
	</g>
</g>
</svg>
